<svg width="15" height="15" viewBox="0 0 15 15" fill="none" xmlns="http://www.w3.org/2000/svg">
<path d="M12 0H3C1.34315 0 0 1.34315 0 3V12C0 13.6569 1.34315 15 3 15H12C13.6569 15 15 13.6569 15 12V3C15 1.34315 13.6569 0 12 0Z" fill="#EB4D27"/>
<path d="M3.01703 7.98797C3.01703 6.92197 3.01703 5.85497 3.01703 4.78897C3.01703 4.71597 3.02703 4.64897 3.07803 4.59197C3.12503 4.53897 3.18303 4.51097 3.25403 4.51097C3.35003 4.51097 3.44603 4.51097 3.54103 4.51097C4.95803 4.51097 6.37403 4.50997 7.79103 4.51297C7.98703 4.51297 8.14403 4.45797 8.28003 4.31197C8.48903 4.08797 8.71103 3.87697 8.92703 3.66097C9.02303 3.56397 9.13903 3.51597 9.27503 3.51597C9.67303 3.51597 10.071 3.51797 10.469 3.51397C10.636 3.51197 10.771 3.56897 10.888 3.68697C11.194 3.99697 11.501 4.30497 11.812 4.60997C11.931 4.72697 11.987 4.86097 11.985 5.02797C11.98 5.35897 11.981 5.68997 11.985 6.02097C11.987 6.17397 11.934 6.29997 11.825 6.40597C11.641 6.58697 11.46 6.77197 11.276 6.95297C11.238 6.99097 11.235 7.01497 11.276 7.05397C11.465 7.23897 11.65 7.42797 11.838 7.61397C11.937 7.71197 11.985 7.82897 11.984 7.96697C11.984 8.30597 11.981 8.64597 11.985 8.98497C11.987 9.13197 11.948 9.25997 11.843 9.36497C11.51 9.69797 11.178 10.031 10.844 10.363C10.749 10.458 10.63 10.494 10.497 10.493C10.216 10.492 9.93503 10.493 9.65303 10.493C8.76603 10.493 7.87803 10.496 6.99103 10.491C6.79803 10.49 6.65303 10.559 6.52303 10.695C6.30703 10.921 6.08303 11.138 5.86103 11.358C5.77403 11.444 5.66603 11.486 5.54503 11.486C4.78903 11.486 4.03303 11.486 3.27603 11.486C3.12603 11.486 3.03603 11.4 3.02203 11.25C3.01903 11.221 3.02003 11.192 3.02003 11.163C3.02003 10.105 3.02003 9.04697 3.02003 7.98897L3.01703 7.98797ZM9.04203 9.28897C9.41903 9.28897 9.79603 9.28897 10.173 9.28897C10.348 9.28897 10.426 9.21197 10.426 9.03897C10.426 8.64297 10.426 8.24797 10.426 7.85197C10.426 7.68597 10.347 7.60597 10.181 7.60597C9.97703 7.60597 9.77303 7.60597 9.56903 7.60597C8.92303 7.60597 8.27803 7.60597 7.63203 7.60597C7.48703 7.60597 7.36203 7.64497 7.25903 7.74897C7.06503 7.94397 6.86103 8.12897 6.67903 8.33397C6.50403 8.53197 6.30303 8.61497 6.03703 8.60697C5.53803 8.59097 5.03703 8.60297 4.53703 8.60297C4.45503 8.60297 4.45503 8.60297 4.45503 8.68597C4.45503 9.17497 4.45503 9.66497 4.45503 10.154C4.45503 10.279 4.45503 10.28 4.57903 10.281C5.22703 10.282 5.87403 10.283 6.52203 10.284C6.66103 10.284 6.77603 10.234 6.87403 10.135C7.10103 9.90497 7.33103 9.67897 7.55803 9.44897C7.66503 9.34097 7.79003 9.28797 7.94303 9.28897C8.31003 9.29197 8.67603 9.28897 9.04303 9.28897H9.04203ZM5.70803 5.71397C5.31803 5.71397 4.92903 5.71397 4.53903 5.71397C4.45403 5.71397 4.45403 5.71397 4.45403 5.80097C4.45403 6.29897 4.45403 6.79597 4.45403 7.29397C4.45403 7.35863 4.48536 7.39097 4.54803 7.39097C5.42303 7.39097 6.29803 7.38897 7.17303 7.39297C7.33603 7.39297 7.46203 7.33797 7.57303 7.22497C7.79703 6.99797 8.02303 6.77397 8.24903 6.54897C8.34603 6.45197 8.46203 6.40097 8.60203 6.40097C9.12703 6.40197 9.65203 6.40097 10.177 6.40097C10.345 6.40097 10.427 6.32197 10.427 6.15297C10.427 5.75297 10.427 5.35297 10.427 4.95297C10.427 4.80197 10.343 4.71597 10.192 4.71597C9.55203 4.71597 8.91303 4.71597 8.27303 4.71597C8.14603 4.71597 8.03803 4.75997 7.94803 4.85097C7.72503 5.07497 7.49803 5.29597 7.27803 5.52397C7.15103 5.65597 7.00403 5.71697 6.82203 5.71497C6.45103 5.71097 6.08003 5.71397 5.71003 5.71297L5.70803 5.71397Z" fill="white"/>
</svg>
