<svg width="15" height="15" viewBox="0 0 15 15" fill="none" xmlns="http://www.w3.org/2000/svg">
<path d="M12 0H3C1.34315 0 0 1.34315 0 3V12C0 13.6569 1.34315 15 3 15H12C13.6569 15 15 13.6569 15 12V3C15 1.34315 13.6569 0 12 0Z" fill="#06C3BE"/>
<path d="M10.591 4.92303C10.329 4.82803 10.145 4.69003 9.99001 4.45503C9.01801 2.98503 7.07101 2.57403 5.63601 3.52503C4.90101 4.01203 4.44401 4.70403 4.26101 5.55803C4.19101 5.88503 4.04201 6.08203 3.75501 6.24303C3.25301 6.52503 2.86601 6.93503 2.59301 7.44903C1.50401 9.50203 2.90501 11.926 5.15701 11.883C5.80201 11.871 6.28001 11.396 6.27401 10.747C6.27001 10.4 6.23101 10.052 6.20201 9.70403C6.18701 9.52503 6.25501 9.44003 6.43901 9.44203C6.74101 9.44703 7.04301 9.44203 7.34501 9.44403C7.46401 9.44403 7.57701 9.47303 7.62801 9.59203C7.71601 9.80003 7.79801 10.012 7.87501 10.224C7.91801 10.341 7.88401 10.449 7.75001 10.452C7.37601 10.462 7.32901 10.7 7.34601 10.993C7.36001 11.235 7.31701 11.423 7.01001 11.429C6.80101 11.433 6.79001 11.594 6.79301 11.756C6.79701 11.926 6.89601 11.985 7.05101 11.984C7.14501 11.984 7.23901 11.987 7.33301 11.986C7.81401 11.984 7.91001 11.904 7.90601 11.434C7.90301 11.155 7.98001 11.02 8.28701 11.018C8.58501 11.016 8.68301 10.852 8.60201 10.561C8.55701 10.398 8.49001 10.241 8.43501 10.081C8.32601 9.76003 8.34601 9.73203 8.69701 9.72703C8.97101 9.72303 9.24401 9.72803 9.51701 9.71803C9.75001 9.70903 9.87301 9.58803 9.89101 9.34503C9.93601 8.71503 9.94001 8.71603 10.586 8.71503H10.643C11.489 8.72503 11.366 8.62103 11.646 9.42003C11.661 9.46503 11.678 9.50903 11.695 9.55303C11.776 9.75403 11.739 9.88403 11.495 9.89903C11.247 9.91403 11.151 10.064 11.151 10.296C11.151 10.381 11.146 10.465 11.147 10.55C11.149 10.755 11.045 10.841 10.846 10.828C10.78 10.824 10.714 10.827 10.648 10.824C10.466 10.816 10.365 10.883 10.366 11.085C10.368 11.269 10.407 11.404 10.624 11.406C10.813 11.408 11.002 11.419 11.19 11.408C11.639 11.383 11.718 11.309 11.709 10.863C11.704 10.582 11.785 10.45 12.091 10.447C12.432 10.444 12.536 10.267 12.427 9.93603C12.327 9.63203 12.222 9.32903 12.103 9.03103C12.016 8.81203 12.065 8.72403 12.308 8.71003C12.654 8.68903 12.768 8.56303 12.781 8.24103C12.838 6.89603 11.845 5.37703 10.591 4.92303V4.92303ZM7.60001 8.70003C7.29901 8.71203 6.99601 8.70303 6.69501 8.70303V8.70803C6.42101 8.70803 6.14701 8.70403 5.87401 8.70903C5.47601 8.71503 5.35501 8.85303 5.39001 9.25603C5.42601 9.67803 5.46501 10.101 5.50501 10.523C5.55001 11.014 5.35701 11.195 4.85801 11.125C3.56301 10.942 2.74501 9.75203 3.02901 8.45203C3.46101 6.46803 5.65101 6.09403 6.94001 7.03103C7.39301 7.36003 7.68901 7.79703 7.86301 8.32003C7.95501 8.59503 7.89001 8.68903 7.60001 8.70003V8.70003ZM7.82501 6.22003C7.38701 6.23803 6.97001 6.20003 6.56201 5.99903C6.17801 5.81003 5.74401 5.78903 5.31701 5.78203C5.02801 5.77703 4.98601 5.73703 5.08101 5.47203C5.37901 4.63803 5.91601 4.03103 6.80701 3.84003C7.73001 3.64203 8.52301 3.92103 9.15901 4.62003C9.48201 4.97603 9.68901 5.39703 9.78701 5.86903C9.84801 6.15903 9.81301 6.21203 9.52201 6.21703C9.13601 6.22303 8.74901 6.21703 8.36201 6.21703C8.18301 6.21803 8.00401 6.21103 7.82501 6.21903V6.22003ZM9.60101 8.05803C9.43101 8.07103 9.34801 8.20803 9.33401 8.37603C9.31901 8.54403 9.29801 8.71403 9.30401 8.88303C9.31201 9.07703 9.23301 9.15903 9.04201 9.15903C8.86201 9.15903 8.72401 9.12003 8.71401 8.90403C8.68501 8.29703 8.49701 7.74203 8.16001 7.23703C8.02401 7.03503 8.11401 6.96803 8.31601 6.96503C8.47601 6.96303 8.63701 6.96503 8.87201 6.96503C9.57201 6.98003 9.48201 6.83403 9.78901 7.65503C9.86801 7.86603 9.92601 8.03203 9.60101 8.05803V8.05803ZM11.706 7.96803H11.198C10.48 7.96903 10.403 7.90803 10.237 7.20703C10.213 7.10603 10.204 7.00903 10.318 6.97003C10.66 6.85403 10.638 6.57803 10.638 6.29803C10.638 6.14703 10.521 5.92503 10.673 5.85703C10.824 5.79103 10.965 5.99103 11.087 6.09903C11.554 6.51203 11.825 7.04103 11.962 7.64303C12.012 7.86003 11.93 7.96803 11.706 7.96803Z" fill="white"/>
</svg>
