<svg width="15" height="15" viewBox="0 0 15 15" fill="none" xmlns="http://www.w3.org/2000/svg">
<path d="M12 0H3C1.34315 0 0 1.34315 0 3V12C0 13.6569 1.34315 15 3 15H12C13.6569 15 15 13.6569 15 12V3C15 1.34315 13.6569 0 12 0Z" fill="white"/>
<path fill-rule="evenodd" clip-rule="evenodd" d="M12 0.5H3C1.61929 0.5 0.5 1.61929 0.5 3V12C0.5 13.3807 1.61929 14.5 3 14.5H12C13.3807 14.5 14.5 13.3807 14.5 12V3C14.5 1.61929 13.3807 0.5 12 0.5ZM3 0H12C13.6569 0 15 1.34315 15 3V12C15 13.6569 13.6569 15 12 15H3C1.34315 15 0 13.6569 0 12V3C0 1.34315 1.34315 0 3 0Z" fill="#CACED3"/>
<path d="M7.10596 8.68297C7.13496 8.25997 6.92196 8.02897 6.50696 8.02497C6.26096 8.02197 6.02596 8.07897 5.80296 8.17797C5.70496 8.22097 5.64696 8.21797 5.62496 8.10297C5.62296 8.09197 5.61796 8.08197 5.61396 8.07197C5.47896 7.69697 5.47796 7.69297 5.85996 7.58897C6.18596 7.50097 6.51796 7.44497 6.85496 7.52497C7.30596 7.63197 7.65296 8.00197 7.67296 8.46897C7.70096 9.13897 7.68496 9.80997 7.68896 10.481C7.68896 10.562 7.65296 10.586 7.57796 10.582C7.48996 10.578 7.40096 10.574 7.31396 10.582C7.18996 10.595 7.10796 10.568 7.12196 10.42C6.45896 10.742 5.86396 10.678 5.53396 10.257C5.22496 9.86297 5.22796 9.23397 5.53996 8.84397C5.86996 8.43297 6.47896 8.36597 7.10696 8.68097L7.10596 8.68297ZM5.92196 9.54697C5.92196 9.88197 6.16496 10.114 6.51396 10.116C6.86696 10.118 7.11996 9.87397 7.11496 9.53597C7.11096 9.20797 6.85696 8.97097 6.51196 8.97497C6.16296 8.97897 5.92096 9.21297 5.92096 9.54697H5.92196Z" fill="#94542A"/>
<path d="M4.17299 9.19498C3.91399 9.19498 3.65499 9.19898 3.39599 9.19298C3.29999 9.19098 3.26999 9.22298 3.27799 9.31498C3.28599 9.41298 3.27099 9.51498 3.28999 9.61098C3.33899 9.85098 3.47699 10.019 3.72299 10.078C3.99699 10.144 4.26299 10.06 4.39599 9.84598C4.46099 9.74198 4.51599 9.74198 4.60599 9.79498C4.68199 9.83898 4.76199 9.87598 4.84099 9.91498C5.03399 10.012 5.03599 10.019 4.90099 10.196C4.64399 10.535 4.27999 10.64 3.87999 10.637C3.10199 10.632 2.65499 10.173 2.65399 9.39598C2.65399 9.16498 2.65399 8.93398 2.65399 8.70298C2.65599 7.93798 3.16099 7.45898 3.92699 7.49698C4.72799 7.53698 5.13599 7.96698 5.13599 8.77198C5.13599 9.21998 5.16499 9.19698 4.71699 9.19398C4.53499 9.19298 4.35299 9.19398 4.17199 9.19398L4.17299 9.19498ZM3.88499 8.72798C4.05499 8.72798 4.22599 8.72498 4.39599 8.72898C4.47299 8.73098 4.49999 8.70598 4.50299 8.62598C4.51599 8.27598 4.26099 8.02998 3.88099 8.03298C3.52899 8.03598 3.26199 8.30498 3.27799 8.63398C3.28099 8.70498 3.30199 8.72998 3.37399 8.72798C3.54399 8.72398 3.71499 8.72698 3.88499 8.72698V8.72798Z" fill="#94542A"/>
<path d="M11.214 10.641C10.743 10.623 10.334 10.496 10.075 10.064C10.006 9.94898 10.005 9.87398 10.143 9.82898C10.153 9.82598 10.163 9.82098 10.173 9.81598C10.272 9.76698 10.368 9.68498 10.469 9.67898C10.585 9.67098 10.617 9.82198 10.698 9.89298C10.903 10.076 11.14 10.133 11.403 10.085C11.563 10.056 11.674 9.95798 11.7 9.79298C11.726 9.63198 11.625 9.53198 11.493 9.47198C11.343 9.40398 11.187 9.34998 11.032 9.29398C10.877 9.23798 10.72 9.18598 10.575 9.10598C10.271 8.93798 10.092 8.69398 10.114 8.33398C10.137 7.96198 10.347 7.71298 10.681 7.59498C11.218 7.40498 11.73 7.47098 12.193 7.82598C12.3 7.90798 12.301 7.96898 12.214 8.06098C12.131 8.14798 12.077 8.28698 11.978 8.32798C11.866 8.37398 11.775 8.22698 11.669 8.17598C11.46 8.07598 11.247 8.01098 11.017 8.07498C10.892 8.10998 10.775 8.16898 10.757 8.31798C10.74 8.46198 10.823 8.55798 10.939 8.62498C11.102 8.71898 11.285 8.76298 11.461 8.82698C11.632 8.88898 11.801 8.95398 11.954 9.05198C12.239 9.23498 12.379 9.49098 12.341 9.83198C12.305 10.155 12.124 10.377 11.835 10.513C11.638 10.606 11.426 10.636 11.213 10.642L11.214 10.641Z" fill="#94542A"/>
<path d="M8.28299 9.09907C8.28299 8.76707 8.27999 8.49207 8.28499 8.21707C8.28699 8.12407 8.26799 8.08107 8.15999 8.08007C7.84299 8.07607 7.84399 8.07107 7.84399 7.75807C7.84399 7.61607 7.91599 7.54507 8.05999 7.54507C8.20399 7.54507 8.27866 7.46907 8.28399 7.31707C8.28399 7.19107 8.28799 7.06407 8.28299 6.93807C8.27899 6.84507 8.31099 6.79707 8.40699 6.78007C8.53699 6.75807 8.66399 6.72207 8.79199 6.69007C8.88399 6.66707 8.92599 6.69607 8.92399 6.79407C8.92099 6.98607 8.93499 7.18007 8.91999 7.37107C8.90699 7.52507 8.96599 7.55707 9.10499 7.54707C9.25799 7.53507 9.41299 7.54907 9.56699 7.54307C9.66999 7.53907 9.69699 7.58107 9.69899 7.67907C9.70899 8.08207 9.71199 8.08207 9.30999 8.08207C8.90799 8.08207 8.92299 8.08207 8.92399 8.46707C8.92599 8.88507 8.92699 9.30207 8.93399 9.72007C8.93799 9.94007 9.04099 10.0431 9.26199 10.0411C9.39299 10.0401 9.52599 10.0221 9.65499 9.99907C9.74199 9.98307 9.77899 10.0121 9.79099 10.0931C9.80099 10.1641 9.81499 10.2341 9.82599 10.3041C9.86399 10.5431 9.85999 10.5571 9.61299 10.6001C9.37399 10.6421 9.13299 10.6591 8.88999 10.6161C8.57199 10.5601 8.35699 10.3501 8.30699 10.0281C8.25499 9.70007 8.29899 9.36907 8.28399 9.09707L8.28299 9.09907Z" fill="#94542A"/>
<path d="M11.379 6.06502C11.302 6.06502 11.225 6.06502 11.148 6.06502C10.903 6.06502 10.82 5.95902 10.96 5.75402C11.077 5.58402 11.049 5.49002 10.96 5.32502C10.776 4.98702 11.014 4.60302 11.399 4.57102C11.56 4.55802 11.723 4.55902 11.862 4.65102C11.964 4.71902 12.013 4.62302 12.082 4.59902C12.247 4.54102 12.296 4.57502 12.276 4.74402C12.27 4.79502 12.258 4.82902 12.201 4.82902C12.087 4.83002 12.074 4.88002 12.096 4.98802C12.166 5.32802 11.959 5.59002 11.609 5.63302C11.497 5.64702 11.374 5.62202 11.276 5.70402C11.248 5.72802 11.209 5.75602 11.23 5.79902C11.247 5.83302 11.289 5.81902 11.32 5.81802C11.474 5.81302 11.628 5.80102 11.782 5.80102C12.009 5.80102 12.175 5.92402 12.231 6.12002C12.287 6.31602 12.208 6.54702 12.042 6.66202C12.003 6.68902 11.947 6.75602 11.911 6.66702C11.884 6.59802 11.762 6.53702 11.864 6.44602C11.949 6.37002 12.01 6.28702 11.964 6.17402C11.915 6.05402 11.798 6.06502 11.694 6.06302C11.589 6.06102 11.485 6.06302 11.38 6.06302L11.379 6.06502ZM11.503 5.37302C11.684 5.37302 11.81 5.26002 11.807 5.09802C11.804 4.94302 11.682 4.83302 11.511 4.83202C11.327 4.83002 11.21 4.93802 11.212 5.10702C11.213 5.26902 11.326 5.37202 11.503 5.37302V5.37302Z" fill="#36B5DD"/>
<path d="M7.03798 5.98799C7.03798 6.19199 7.02998 6.37699 7.04098 6.56099C7.04898 6.70499 6.95998 6.68199 6.87198 6.68699C6.77198 6.69299 6.72398 6.67199 6.72498 6.55499C6.72998 5.94499 6.72698 5.33498 6.72798 4.72498C6.72798 4.67398 6.70498 4.59798 6.78498 4.59298C6.86098 4.58798 6.96498 4.54098 7.00898 4.62998C7.03998 4.69298 7.04698 4.67798 7.09298 4.65498C7.55098 4.42098 7.93898 4.65998 7.94298 5.17598C7.94298 5.30798 7.94898 5.43999 7.94098 5.57199C7.91498 5.98999 7.54698 6.21398 7.16298 6.04798C7.12898 6.03298 7.09598 6.01598 7.03998 5.98898L7.03798 5.98799ZM7.03898 5.32998C7.03898 5.40098 7.03598 5.47198 7.03898 5.54298C7.04998 5.72198 7.14598 5.82099 7.31198 5.82899C7.48898 5.83799 7.61398 5.74499 7.62998 5.56999C7.64398 5.41299 7.64398 5.25199 7.62998 5.09499C7.61498 4.91799 7.49198 4.82599 7.31498 4.83299C7.14698 4.83999 7.04998 4.93798 7.03898 5.11698C7.03498 5.18798 7.03898 5.25898 7.03898 5.32998Z" fill="#F65C37"/>
<path d="M8.96098 5.13106C8.96798 4.93206 8.89898 4.84606 8.72998 4.82906C8.60698 4.81606 8.48598 4.83306 8.37498 4.88406C8.27298 4.93106 8.25398 4.87506 8.22898 4.79906C8.20398 4.72606 8.17898 4.66906 8.28498 4.63406C8.46098 4.57706 8.63798 4.54806 8.81998 4.57406C9.07798 4.61106 9.25798 4.83606 9.26298 5.12806C9.26698 5.38606 9.26398 5.64406 9.26298 5.90206C9.26298 6.06806 9.18098 6.13806 9.03298 6.06206C8.94698 6.01906 8.89498 6.04106 8.82698 6.06506C8.39398 6.21206 8.02198 5.89206 8.10898 5.44806C8.17198 5.12506 8.50398 4.95906 8.84298 5.08006C8.87898 5.09306 8.91298 5.11106 8.96098 5.13206V5.13106ZM8.69098 5.83706C8.86398 5.83606 8.97498 5.73006 8.97498 5.56606C8.97498 5.40106 8.86598 5.29506 8.69298 5.29306C8.51198 5.29106 8.39698 5.40106 8.39998 5.57206C8.40298 5.73506 8.51598 5.83806 8.68998 5.83706H8.69098Z" fill="#FEB908"/>
<path d="M5.09595 5.33302C5.09595 5.37702 5.09595 5.42102 5.09595 5.46502C5.09395 5.96302 4.69195 6.23502 4.22495 6.05202C4.02695 5.97502 3.92095 5.82102 3.89595 5.61502C3.87295 5.42902 3.87095 5.24102 3.89495 5.05602C3.93895 4.71402 4.17095 4.54802 4.55595 4.56802C4.87695 4.58502 5.08095 4.79202 5.09595 5.11802C5.09895 5.18902 5.09595 5.26102 5.09595 5.33202V5.33302ZM4.19395 5.31602C4.19395 5.39302 4.18995 5.47002 4.19395 5.54602C4.20595 5.72302 4.30695 5.82202 4.47395 5.82802C4.64495 5.83402 4.76995 5.74702 4.78495 5.57902C4.79995 5.41102 4.79995 5.23902 4.78295 5.07102C4.76595 4.90402 4.63995 4.82102 4.46695 4.83002C4.30595 4.83902 4.20895 4.93302 4.19495 5.10202C4.18895 5.17302 4.19495 5.24402 4.19495 5.31602H4.19395Z" fill="#94542A"/>
<path d="M9.49698 5.32195C9.49698 5.12995 9.49498 4.93695 9.49798 4.74495C9.49798 4.69395 9.46698 4.61795 9.53098 4.59795C9.60598 4.57395 9.70598 4.55195 9.76498 4.61495C9.80798 4.66095 9.82198 4.66695 9.87798 4.64095C10.321 4.43695 10.684 4.65095 10.705 5.13395C10.717 5.40795 10.703 5.68295 10.71 5.95795C10.713 6.07795 10.643 6.07695 10.561 6.07195C10.484 6.06795 10.39 6.10095 10.393 5.96095C10.399 5.69195 10.397 5.42295 10.394 5.15395C10.392 4.94095 10.294 4.83495 10.105 4.83195C9.91198 4.82895 9.80098 4.94395 9.79798 5.15795C9.79498 5.42195 9.78998 5.68595 9.79998 5.94895C9.80498 6.07895 9.73398 6.07495 9.64598 6.07495C9.55798 6.07495 9.48598 6.07895 9.49298 5.94895C9.50398 5.74095 9.49598 5.53195 9.49598 5.32295L9.49698 5.32195Z" fill="#8BCD36"/>
<path d="M6.49896 5.34201C6.49896 5.54001 6.50096 5.73801 6.49696 5.93601C6.49696 5.98001 6.52596 6.05201 6.45596 6.06001C6.37996 6.06801 6.27396 6.11302 6.22996 6.03102C6.19496 5.96602 6.18396 5.98601 6.14196 6.00701C5.67096 6.23801 5.29696 6.00801 5.29496 5.48701C5.29396 5.24001 5.30296 4.99201 5.29196 4.74502C5.28596 4.61502 5.33196 4.59101 5.45096 4.59101C5.56396 4.59101 5.60396 4.62002 5.59896 4.73802C5.58996 4.99102 5.59496 5.24402 5.59696 5.49702C5.59896 5.71502 5.70396 5.83002 5.89496 5.83102C6.09096 5.83202 6.19296 5.72301 6.19496 5.50201C6.19696 5.24401 6.20296 4.98501 6.19296 4.72701C6.18796 4.59701 6.24896 4.58901 6.35096 4.58601C6.46296 4.58301 6.50696 4.61301 6.50196 4.73201C6.49296 4.93501 6.49896 5.13901 6.49896 5.34201V5.34201Z" fill="#94542A"/>
<path d="M2.65298 5.33601C2.65298 5.27601 2.65298 5.21501 2.65298 5.15501C2.65398 4.91701 2.73498 4.71601 2.96598 4.62301C3.20698 4.52601 3.45298 4.52901 3.66798 4.69801C3.72398 4.74201 3.83698 4.81101 3.75298 4.88601C3.69398 4.93901 3.59198 5.07501 3.47198 4.91601C3.39098 4.80701 3.25698 4.81101 3.13698 4.84901C3.02098 4.88601 2.96298 4.98501 2.95698 5.10201C2.94898 5.25501 2.94898 5.41001 2.95698 5.56301C2.96398 5.68001 3.02398 5.77501 3.14198 5.81201C3.26298 5.85001 3.39298 5.84901 3.47498 5.74101C3.58998 5.58901 3.68198 5.72301 3.74698 5.77001C3.84198 5.83801 3.73498 5.90601 3.68798 5.94701C3.47398 6.13201 3.22398 6.13801 2.97498 6.04401C2.74198 5.95601 2.65598 5.75701 2.65198 5.51801C2.65198 5.45801 2.65198 5.39701 2.65198 5.33701L2.65298 5.33601Z" fill="#94542A"/>
</svg>
