<svg width="15" height="15" viewBox="0 0 15 15" fill="none" xmlns="http://www.w3.org/2000/svg">
<path d="M12 0H3C1.34315 0 0 1.34315 0 3V12C0 13.6569 1.34315 15 3 15H12C13.6569 15 15 13.6569 15 12V3C15 1.34315 13.6569 0 12 0Z" fill="#E52D2B"/>
<path d="M7.49599 10.981C7.16999 10.981 6.84399 10.986 6.51799 10.981C5.78699 10.968 5.42299 10.613 5.35699 9.88901C5.30899 9.36101 5.08099 8.91001 4.72399 8.51601C2.81099 6.40701 3.81699 3.04301 6.57199 2.33101C8.16999 1.918 9.85299 2.60501 10.718 4.02501C11.574 5.42901 11.408 7.26701 10.301 8.48301C9.91999 8.90201 9.69999 9.38301 9.63999 9.93801C9.57199 10.558 9.18799 10.945 8.56199 10.975C8.20699 10.992 7.85099 10.978 7.49599 10.978V10.98V10.981ZM9.18199 4.12301C8.64099 4.04801 8.15999 3.94301 7.67599 3.92201C6.72199 3.88101 5.80399 4.04701 4.99699 4.59801C4.40299 5.00301 4.07099 5.558 4.10699 6.298C4.14899 7.168 4.94199 7.708 5.75999 7.402C5.99499 7.314 6.21699 7.16901 6.41899 7.01501C6.90599 6.64201 7.39299 6.315 8.05099 6.66C8.42199 5.828 8.77799 5.02801 9.18199 4.12301ZM9.42799 7.42501C9.94099 7.57201 10.445 7.34901 10.715 6.88601C11.026 6.35301 10.924 5.52701 10.47 5.08501C10.122 5.86601 9.77999 6.63501 9.42799 7.42501ZM8.88299 7.20401C9.22999 6.42501 9.56999 5.66101 9.90999 4.89701C10.05 4.58301 10.041 4.56501 9.67799 4.45301C9.33899 5.21401 9.00899 5.982 8.65299 6.739C8.53399 6.993 8.58499 7.12201 8.88199 7.20401H8.88299Z" fill="white"/>
<path d="M7.49201 11.8891C7.04901 11.8891 6.60601 11.8891 6.16301 11.8891C5.99101 11.8891 5.83501 11.8571 5.83301 11.6441C5.83201 11.4301 5.99201 11.3951 6.16101 11.3951C7.05701 11.3931 7.95201 11.3931 8.84801 11.3951C9.02001 11.3951 9.19701 11.4501 9.15101 11.6541C9.12901 11.7501 8.95801 11.8721 8.84901 11.8781C8.39801 11.9031 7.94401 11.8891 7.49201 11.8891V11.8891Z" fill="white"/>
<path d="M6.49097 12.322H8.49697C8.15497 12.903 6.95697 12.983 6.49097 12.322Z" fill="white"/>
</svg>
