<svg width="15" height="15" viewBox="0 0 15 15" fill="none" xmlns="http://www.w3.org/2000/svg">
<path d="M12 0H3C1.34315 0 0 1.34315 0 3V12C0 13.6569 1.34315 15 3 15H12C13.6569 15 15 13.6569 15 12V3C15 1.34315 13.6569 0 12 0Z" fill="#16D880"/>
<path d="M12.729 8.68902C12.729 9.04902 12.725 9.41002 12.732 9.77002C12.734 9.85802 12.715 9.87602 12.627 9.87502C12.265 9.86902 11.903 9.87202 11.541 9.87202C10.968 9.24502 10.344 8.66902 9.74796 8.06502C9.72596 8.04302 9.68396 8.01602 9.66196 8.02302C9.59596 8.04702 9.61496 8.11302 9.61396 8.16402C9.61296 8.73302 9.61396 9.30302 9.61396 9.87202H7.97496C7.97296 8.39102 7.96996 6.91002 7.96796 5.42902C7.96796 5.14102 7.97696 5.13202 8.26796 5.13202C9.40796 5.13202 10.548 5.14602 11.688 5.12502C12.172 5.11602 12.526 5.26202 12.729 5.71102V6.16002C12.55 6.61502 12.196 6.78202 11.727 6.76902C11.482 6.76202 11.237 6.76802 10.992 6.76902C10.947 6.76902 10.887 6.75802 10.87 6.81702C10.858 6.86002 10.9 6.88902 10.928 6.91802C11.11 7.10102 11.291 7.28502 11.476 7.46402C11.896 7.86902 12.287 8.30402 12.728 8.68702L12.729 8.68902Z" fill="white"/>
<path d="M5.68097 9.872H4.16497C4.14097 9.816 4.11897 9.759 4.09397 9.703C3.43897 8.261 2.78297 6.82 2.12797 5.378C2.02797 5.157 2.04097 5.134 2.28097 5.133C2.73097 5.131 3.18197 5.142 3.63197 5.128C3.83097 5.122 3.92497 5.202 3.99497 5.376C4.26697 6.058 4.54997 6.735 4.83097 7.413C4.85597 7.473 4.86097 7.568 4.93997 7.569C5.02197 7.571 5.02497 7.473 5.04897 7.415C5.33897 6.719 5.62897 6.022 5.91197 5.323C5.96897 5.182 6.05397 5.127 6.20497 5.13C6.65497 5.137 7.10597 5.132 7.55597 5.132C7.85297 5.132 7.86197 5.147 7.73897 5.41C7.26197 6.432 6.78097 7.453 6.30897 8.478C6.09597 8.941 5.85397 9.391 5.68097 9.871V9.872Z" fill="white"/>
</svg>
